<?xml version="1.0"?>
<svg xmlns="http://www.w3.org/2000/svg" xmlns:xlink="http://www.w3.org/1999/xlink" xmlns:svgjs="http://svgjs.com/svgjs" version="1.1" width="512" height="512" x="0" y="0" viewBox="0 0 511.99887 511" style="enable-background:new 0 0 512 512" xml:space="preserve"><g><path xmlns="http://www.w3.org/2000/svg" d="m2.195312 509.289062c2.933594 2.925782 7.679688 2.925782 10.609376 0l87.902343-87.902343 4.390625 4.386719c4.925782 4.929687 12.382813 6.664062 18.988282 4.390624l25.214843-8.675781c13.054688 9.222657 31.308594 8.082031 43.121094-3.726562l204.554687-204.554688 2.902344 2.902344c7.507813 7.503906 19.722656 7.507813 27.234375 0l6.691407-6.695313c7.507812-7.507812 7.507812-19.722656 0-27.234374-1.207032-1.207032-9.441407-9.441407-20.78125-20.777344l16.203124-16.207032c2.929688-2.925781 2.929688-7.675781 0-10.605468-2.929687-2.929688-7.679687-2.929688-10.605468 0l-16.203125 16.203125c-12.902344-12.902344-27.796875-27.796875-40.695313-40.695313l55.152344-55.15625c14.078125 14.078125 31.601562 31.601563 40.699219 40.695313l-14.203125 14.203125c-2.929688 2.929687-2.929688 7.679687 0 10.605468 2.929687 2.929688 7.679687 2.929688 10.605468 0l14.203126-14.199218 4.261718 4.261718c7.527344 7.523438 19.707032 7.523438 27.234375 0l6.691407-6.695312c7.507812-7.507812 7.507812-19.722656 0-27.234375l-21.386719-21.386719c-2.929688-2.925781-7.675781-2.925781-10.605469.003906-2.929688 2.929688-2.929688 7.675782 0 10.605469l21.386719 21.382813c1.65625 1.660156 1.660156 4.363281 0 6.023437l-6.695313 6.691407c-1.65625 1.660156-4.359375 1.660156-6.015625 0l-70.4375-70.433594c-1.660156-1.660156-1.65625-4.359375 0-6.019532l6.695313-6.695312c1.660156-1.660156 4.347656-1.664062 6.019531.003906l24.296875 24.296875c2.929688 2.925781 7.675781 2.929688 10.605469-.003906 2.929687-2.925781 2.929687-7.675781 0-10.605469l-24.292969-24.296875c-7.527344-7.527343-19.710938-7.527343-27.234375 0l-6.695313 6.691407c-7.507812 7.511718-7.507812 19.726562 0 27.234374l4.261719 4.261719-55.15625 55.15625c-11.480469-11.484375-19.765625-19.769531-20.777343-20.78125-7.527344-7.523437-19.707032-7.527343-27.234376 0l-6.691406 6.691407c-7.527344 7.527343-7.527344 19.710937 0 27.234374l2.898438 2.902344c-7.640625 7.640625-194.691406 194.691406-204.554688 204.554688-12.1875 12.191406-12.84375 30.976562-3.183594 43.878906l-8.621093 25.054688c-2.269531 6.601562-.546875 14.054687 4.386719 18.992187l2.765624 2.761719-87.90625 87.902344c-2.925781 2.929687-2.925781 7.675781 0 10.609374zm304.820313-413.277343 6.691406-6.695313c1.664063-1.664062 4.355469-1.660156 6.019531 0 3.945313 3.945313 95.203126 95.203125 103.472657 103.472656 1.65625 1.660157 1.660156 4.359376 0 6.019532l-6.695313 6.691406c-1.65625 1.660156-4.359375 1.660156-6.019531 0-2.996094-2.996094-97.78125-97.78125-103.472656-103.472656-1.660157-1.660156-1.664063-4.355469.003906-6.015625zm2.898437 30.132812 76.457032 76.457031-12.714844 12.710938-76.453125-76.453125zm-204.550781 204.554688 181.234375-181.234375 76.453125 76.453125-17.242187 17.242187-13.277344-13.277344c-2.929688-2.933593-7.679688-2.929687-10.605469-.003906-2.929687 2.929688-2.929687 7.679688-.003906 10.609375l13.28125 13.277344-17.898437 17.898437-13.277344-13.28125c-2.929688-2.929687-7.679688-2.929687-10.605469 0-2.933594 2.929688-2.933594 7.679688-.003906 10.605469l13.28125 13.28125-17.898438 17.898438-13.277343-13.277344c-2.929688-2.929687-7.679688-2.929687-10.609376-.003906-2.929687 2.929687-2.929687 7.679687 0 10.609375l13.277344 13.28125-17.894531 17.894531-13.28125-13.277344c-2.925781-2.929687-7.675781-2.933593-10.605469-.003906-2.929687 2.929687-2.929687 7.679687 0 10.609375l13.277344 13.277344-17.894531 17.898437-13.28125-13.28125c-2.925781-2.925781-7.675781-2.929687-10.605469 0-2.929688 2.929688-2.929688 7.679688 0 10.605469l13.277344 13.28125-17.898438 17.898438-13.277344-13.28125c-2.929687-2.929688-7.679687-2.925782-10.605468 0-2.929688 2.929687-2.929688 7.679687 0 10.609374l13.277344 13.277344-10.867188 10.867188c-7.273438 7.273437-19.046875 7.285156-26.332031.011718l-50.117188-50.121093c-7.28125-7.277344-7.28125-19.0625 0-26.34375zm-8.230469 63.203125 6.109376-17.761719 33.726562 33.726563-17.761719 6.109374c-1.21875.417969-2.59375.101563-3.503906-.808593-15.511719-15.515625-6.847656-6.847657-17.761719-17.761719-.90625-.910156-1.226562-2.285156-.808594-3.503906zm0 0" fill="#0275d8" data-original="#000000" style=""/></g></svg>
